<svg width="32" height="32" viewBox="0 0 32 32" fill="none" xmlns="http://www.w3.org/2000/svg">
<g clip-path="url(#clip0_139_15)">
<path d="M23.0001 24.0001C23.0001 23.4481 22.5521 23.0001 22.0001 23.0001C21.4481 23.0001 21.0001 23.4481 21.0001 24.0001C21.0001 24.5521 21.4481 25.0001 22.0001 25.0001C22.5521 25.0001 23.0001 24.5521 23.0001 24.0001ZM30.6401 24.6401L30.6401 19.3601H27.0001V18.6401H30.6401V1.36008L17.3601 1.36008V15.0001H16.6401V1.00008C16.6401 0.801076 16.8011 0.640076 17.0001 0.640076L31.0001 0.640076C31.1991 0.640076 31.3601 0.801076 31.3601 1.00008L31.3601 25.0001C31.3601 25.1991 31.1991 25.3601 31.0001 25.3601H27.0001V24.6401H30.6401ZM13.0001 4.36008C8.78708 4.36008 5.36008 7.78708 5.36008 12.0001V13.1311L7.74608 10.7461L8.25508 11.2551L5.00008 14.5091L1.74608 11.2541L2.25508 10.7451L4.64108 13.1301V12.0001C4.64108 7.39008 8.39108 3.64008 13.0011 3.64008L15.0011 3.64008V4.36008L13.0001 4.36008ZM1.00008 31.3601L25.0001 31.3601C25.1991 31.3601 25.3601 31.1991 25.3601 31.0001L25.3601 17.0001C25.3601 16.8011 25.1991 16.6401 25.0001 16.6401L1.00008 16.6401C0.801076 16.6401 0.640076 16.8011 0.640076 17.0001L0.640076 31.0001C0.640076 31.1991 0.801076 31.3601 1.00008 31.3601ZM19.3601 30.6401L19.3601 17.3601L24.6391 17.3601L24.6391 30.6401L19.3601 30.6401ZM1.36008 30.6401L1.36008 17.3601H18.6401L18.6401 30.6401H1.36008Z" fill="white"/>
</g>
<defs>
<clipPath id="clip0_139_15">
<rect width="32" height="32" fill="white"/>
</clipPath>
</defs>
</svg>
