<svg width="202" height="200" viewBox="0 0 202 200" fill="none" xmlns="http://www.w3.org/2000/svg">
<path d="M63.6848 90.5L63.1873 104L66.1725 101L65.6749 90.5C65.6749 88.5 63.6848 88.5 63.6848 90.5Z" fill="#D9D9D9"/>
<path d="M68.6602 90.5V98.5L70.6503 96.5V90.5C69.6552 88.5 69.6552 88.5 68.6602 90.5Z" fill="#D9D9D9"/>
<path d="M73.5 57.5L96.5222 0L87 46.5V58.5H88.5L90 50.5L100.5 7L100.502 186.5L98.0148 190L95.5 200H88.5L85 190L80.5 194L81 187L62.5 190L63.5 178.5L80 168L79.5 165L56 166.5L52.5 180L50 183L40 183.5L38 181L35.7037 167.452L0 172L3.48276 154L34.3301 136L35.8437 122.056L40 113H54.5L56 124L75.5 112V110L57.5 121L58.5 109.5L77.5 90L82.5 81V78L72.5 91L73.5 57.5Z" fill="#3A3A3A" stroke="#5F5454"/>
<path d="M100.005 62V14.5L91.0493 51.5L100.005 62Z" fill="#D9D9D9" stroke="white"/>
<path d="M54.729 117H38.8079L40.3005 113.5H54.2315L54.729 117Z" fill="#CC6B6B" stroke="black"/>
<path d="M98.5122 178V159.5L82.0935 191.5L98.5122 178Z" fill="#8D8D8D" stroke="#8D8D8D"/>
<path d="M79.2576 130L82.7725 136.21H75.7427L79.2576 130Z" fill="#FF6F6F"/>
<path d="M79.258 149.589L75.7431 143.379H82.7729L79.258 149.589Z" fill="#FF6F6F"/>
<path d="M69.6553 139.794L75.7433 136.209V143.38L69.6553 139.794Z" fill="#FF6F6F"/>
<path d="M88.8594 139.795L82.7714 143.38V136.21L88.8594 139.795Z" fill="#FF6F6F"/>
<path d="M137.818 90.5L138.315 104L135.33 101L135.828 90.5C135.828 88.5 137.818 88.5 137.818 90.5Z" fill="#D9D9D9"/>
<path d="M132.842 90.5V98.5L130.852 96.5V90.5C131.847 88.5 131.847 88.5 132.842 90.5Z" fill="#D9D9D9"/>
<path d="M128.002 57.5L104.98 0L114.502 46.5V58.5H113.002L111.502 50.5L101.002 7L101 186.5L103.488 190L106.002 200H113.002L116.502 190L121.002 194L120.502 187L139.002 190L138.002 178.5L121.502 168L122.002 165L145.502 166.5L149.002 180L151.502 183L161.502 183.5L163.502 181L165.799 167.452L201.502 172L198.02 154L167.172 136L165.659 122.056L161.502 113H147.002L145.502 124L126.002 112V110L144.002 121L143.002 109.5L124.002 90L119.002 81V78L129.002 91L128.002 57.5Z" fill="#3A3A3A" stroke="#5F5454"/>
<path d="M101.497 62V14.5L110.453 51.5L101.497 62Z" fill="#D9D9D9" stroke="white"/>
<path d="M146.773 117H162.695L161.202 113.5H147.271L146.773 117Z" fill="#CC6B6B" stroke="black"/>
<path d="M102.99 178V159.5L119.409 191.5L102.99 178Z" fill="#8D8D8D" stroke="#8D8D8D"/>
<path d="M122.245 130L118.73 136.21H125.76L122.245 130Z" fill="#FF6F6F"/>
<path d="M122.244 149.589L125.759 143.379H118.729L122.244 149.589Z" fill="#FF6F6F"/>
<path d="M131.847 139.794L125.759 136.209V143.38L131.847 139.794Z" fill="#FF6F6F"/>
<path d="M112.643 139.795L118.731 143.38V136.21L112.643 139.795Z" fill="#FF6F6F"/>
</svg>
