<svg width="202" height="202" viewBox="0 0 202 202" fill="none" xmlns="http://www.w3.org/2000/svg">
<path d="M138 91.5L138.5 105L135.5 102L136 91.5C136 89.5 138 89.5 138 91.5Z" fill="#D9D9D9"/>
<path d="M133 91.5V99L131 97V91.5C132 89.5 132 89.5 133 91.5Z" fill="#D9D9D9"/>
<path d="M64 91.5L63.5 105L66.5 102L66 91.5C66 89.5 64 89.5 64 91.5Z" fill="#D9D9D9"/>
<path d="M69 91.5V99L71 97V91.5C70 89.5 70 89.5 69 91.5Z" fill="#D9D9D9"/>
<path d="M73.5738 58.5303L97.2025 1L87.6385 47.5382V59.8151H89.045L90.5921 51.5353C90.7046 49.4797 97.5776 21.7471 101 8.13776V187.296L98.4684 191.007L96.218 201H88.7637L85.2475 190.579L81.4501 194.719V188.009L63.5879 190.579V179.587L80.3249 169.023L79.7623 166.025L55.7117 167.453L52.6174 181.157L50 184L41 184.5L38.2715 181.728L35.8805 168.452L1 172.163L3.1097 155.176L34.6146 137.046L36.0211 123.056L39.9592 113.777H54.8678L56.5556 125.197L75.9648 112.777V111.493L58.2433 122.485V110.493L77.3713 90.9358L82.5752 81.7994V80.0864L73.5738 93.5053V58.5303Z" fill="#3A3A3A" stroke="#5F5454"/>
<path d="M128.426 58.5303L104.797 1L114.361 47.5382V59.8151H112.955L111.408 51.5353C111.295 49.4797 104.422 21.7471 101 8.13776V187.296L103.532 191.007L105.782 201H113.236L116.752 190.579L120.55 194.719V188.009L138.412 190.579V179.587L121.675 169.023L122.238 166.025L146.288 167.453L149.383 181.157L151 184L161 184.5L163.729 181.728L166.12 168.452L201 172.163L198.89 155.176L167.385 137.046L165.979 123.056L164.15 113.777H147.976L145.444 125.197L126.035 112.777V111.493L143.757 122.485V110.493L124.629 90.9358L119.425 81.7994V80.0864L128.426 93.5053V58.5303Z" fill="#3A3A3A" stroke="#5F5454"/>
<path d="M100.297 63.0983V15.2753L91.7173 52.6772L100.297 63.0983Z" fill="#D9D9D9" stroke="white"/>
<path d="M101.563 63.0983V15.2753L110.142 52.6772L101.563 63.0983Z" fill="#D9D9D9" stroke="white"/>
<path d="M80.6066 116.203L97.2029 65.8107V157.888L7.75146 166.881V157.888L80.6066 116.203Z" stroke="white"/>
<path d="M121.393 116.203L104.797 65.8107V157.888L194.249 166.881V157.888L121.393 116.203Z" stroke="white"/>
<path d="M55.7116 167.596L56.5 125L36 123.5L34.5 137L35.8804 168.452L38.2714 181.3L52.758 180.872L55.7116 167.596Z" fill="#8D8D8D" stroke="white"/>
<path d="M146.429 167.738L145.5 125L166.26 124.626L167.5 137L166.26 168.595L163.869 181.443L149.383 181.015L146.429 167.738Z" fill="#8D8D8D" stroke="white"/>
<path d="M90.7949 140.472C90.7949 147.219 85.4075 152.677 78.7773 152.677C72.1472 152.677 66.7598 147.219 66.7598 140.472C66.7598 133.724 72.1472 128.266 78.7773 128.266C85.4075 128.266 90.7949 133.724 90.7949 140.472Z" stroke="white"/>
<path d="M135.24 140.187C135.24 146.934 129.852 152.392 123.222 152.392C116.592 152.392 111.205 146.934 111.205 140.187C111.205 133.439 116.592 127.981 123.222 127.981C129.852 127.981 135.24 133.439 135.24 140.187Z" stroke="white"/>
<path d="M55.3151 117.569H39L40.2658 114.285H54.7525L55.3151 117.569Z" fill="#CC6B6B" stroke="black"/>
<path d="M99.1716 178.73V160.6L82.4346 192.578L99.1716 178.73Z" fill="#8D8D8D" stroke="#8D8D8D"/>
<path d="M102.828 178.73V160.6L119.565 192.578L102.828 178.73Z" fill="#8D8D8D" stroke="#8D8D8D"/>
<path d="M148.283 114L147.58 116.855H164.457L163.895 114H148.283Z" fill="#CC6B6B" stroke="black"/>
<path d="M78.65 130.285L82.1823 136.495H75.1177L78.65 130.285Z" fill="#FF6F6F"/>
<path d="M78.6503 149.874L75.118 143.665H82.1826L78.6503 149.874Z" fill="#FF6F6F"/>
<path d="M69 140.08L75.1181 136.494V143.665L69 140.08Z" fill="#FF6F6F"/>
<path d="M88.2993 140.08L82.1812 143.665V136.495L88.2993 140.08Z" fill="#FF6F6F"/>
<path d="M123.095 130L126.627 136.21H119.563L123.095 130Z" fill="#FF6F6F"/>
<path d="M123.095 149.589L119.563 143.379H126.627L123.095 149.589Z" fill="#FF6F6F"/>
<path d="M113.444 139.795L119.562 136.209V143.38L113.444 139.795Z" fill="#FF6F6F"/>
<path d="M132.744 139.795L126.626 143.38V136.209L132.744 139.795Z" fill="#FF6F6F"/>
</svg>
