<svg width="202" height="202" viewBox="0 0 202 202" fill="none" xmlns="http://www.w3.org/2000/svg">
<path d="M138 91.5L138.5 105L135.5 102L136 91.5C136 89.5 138 89.5 138 91.5Z" fill="white"/>
<path d="M133 91.5V99L131 97V91.5C132 89.5 132 89.5 133 91.5Z" fill="white"/>
<path d="M64 91.5L63.5 105L66.5 102L66 91.5C66 89.5 64 89.5 64 91.5Z" fill="white"/>
<path d="M69 91.5V99L71 97V91.5C70 89.5 70 89.5 69 91.5Z" fill="white"/>
<path d="M73.5738 58.5303L97.2025 1L87.6385 47.5382V59.8151H89.045L90.5921 51.5353C90.7046 49.4797 97.5776 21.7471 101 8.13776V187.296L98.4684 191.007L96.218 201H88.7637L85.2475 190.579L81.4501 194.719V188.009L63.5879 190.579V179.587L80.3249 169.023L79.7623 166.025L55.7117 167.453L52.6174 181.157L50 184L41 184.5L38.2715 181.728L35.8805 168.452L1 172.163L3.1097 155.176L34.6146 137.046L36.0211 123.056L39.9592 113.777H54.8678L56.5556 125.197L75.9648 112.777V111.493L58.2433 122.485V110.493L77.3713 90.9358L82.5752 81.7994V80.0864L73.5738 93.5053V58.5303Z" fill="white" stroke="white"/>
<path d="M128.426 58.5303L104.797 1L114.361 47.5382V59.8151H112.955L111.408 51.5353C111.295 49.4797 104.422 21.7471 101 8.13776V187.296L103.532 191.007L105.782 201H113.236L116.752 190.579L120.55 194.719V188.009L138.412 190.579V179.587L121.675 169.023L122.238 166.025L146.288 167.453L149.383 181.157L151 184L161 184.5L163.729 181.728L166.12 168.452L201 172.163L198.89 155.176L167.385 137.046L165.979 123.056L164.15 113.777H147.976L145.444 125.197L126.035 112.777V111.493L143.757 122.485V110.493L124.629 90.9358L119.425 81.7994V80.0864L128.426 93.5053V58.5303Z" fill="white" stroke="white"/>
<path d="M55.7116 167.596L56.5 125L36 123.5L34.5 137L35.8804 168.452L38.2714 181.3L52.758 180.872L55.7116 167.596Z" fill="white" stroke="white"/>
<path d="M146.429 167.738L145.5 125L166.26 124.626L167.5 137L166.26 168.595L163.869 181.443L149.383 181.015L146.429 167.738Z" fill="white" stroke="white"/>
</svg>
