<svg width="713" height="702" viewBox="0 0 713 702" fill="none" xmlns="http://www.w3.org/2000/svg">
<path d="M259 202.5L343 1L309 164V207H314L319.5 178C319.9 170.8 344.333 73.6667 356.5 26V653.5L347.5 666.5L339.5 701.5H313L300.5 665L287 679.5V656L223.5 665V626.5L283 589.5L281 579L195.5 584L184.5 632L176.5 642L144 643L133.5 634L125 587.5L1 600.5L8.5 541L120.5 477.5L125.5 428.5L139.5 396H192.5L198.5 436L267.5 392.5V388L204.5 426.5V384.5L272.5 316L291 284V278L259 325V202.5Z" fill="#3A3A3A" stroke="#5F5454"/>
<path d="M454 202.5L370 1L404 164V207H399L393.5 178C393.1 170.8 368.667 73.6667 356.5 26V653.5L365.5 666.5L373.5 701.5H400L412.5 665L426 679.5V656L489.5 665V626.5L430 589.5L432 579L517.5 584L528.5 632L536.5 642L569 643L579.5 634L588 587.5L712 600.5L704.5 541L592.5 477.5L587.5 428.5L573.5 396H523.5L514.5 436L445.5 392.5V388L508.5 426.5V384.5L440.5 316L422 284V278L454 325V202.5Z" fill="#3A3A3A" stroke="#5F5454"/>
<path d="M354 218.5V51L323.5 182L354 218.5Z" fill="#D9D9D9" stroke="white"/>
<path d="M358.5 218.5V51L389 182L358.5 218.5Z" fill="#D9D9D9" stroke="white"/>
<path d="M284 404.5L343 228V550.5L25 582V550.5L284 404.5Z" stroke="white"/>
<path d="M429 404.5L370 228V550.5L688 582V550.5L429 404.5Z" stroke="white"/>
<path d="M195.5 584.5L198.5 436V435L125 433.5V587.5L133.5 632.5L185 631L195.5 584.5Z" fill="#8D8D8D" stroke="white"/>
<path d="M518 585L515 436.5V435.5L588.5 434V588L580 633L528.5 631.5L518 585Z" fill="#8D8D8D" stroke="white"/>
<path d="M229 319.5V359.5L237 351.5V319.5C233.4 311.5 230.167 316.167 229 319.5Z" fill="#D9D9D9"/>
<path d="M245 319.5V343.5L251.5 337V319.5C248.7 309.9 246 315.5 245 319.5Z" fill="#D9D9D9"/>
<path d="M229 319.5V359.5L237 351.5V319.5C233.4 311.5 230.167 316.167 229 319.5Z" stroke="black"/>
<path d="M245 319.5V343.5L251.5 337V319.5C248.7 309.9 246 315.5 245 319.5Z" stroke="black"/>
<path d="M483.5 319.265V359L475.5 351.053V319.265C479.1 311.318 482.333 315.954 483.5 319.265Z" fill="#D9D9D9"/>
<path d="M467.5 319.265V343.106L461 336.649V319.265C463.8 309.729 466.5 315.292 467.5 319.265Z" fill="#D9D9D9"/>
<path d="M483.5 319.265V359L475.5 351.053V319.265C479.1 311.318 482.333 315.954 483.5 319.265Z" stroke="black"/>
<path d="M467.5 319.265V343.106L461 336.649V319.265C463.8 309.729 466.5 315.292 467.5 319.265Z" stroke="black"/>
<circle cx="277.5" cy="489.5" r="44" stroke="white"/>
<circle cx="435.5" cy="488.5" r="44" stroke="white"/>
</svg>
